HIERARCHY
ROOT Hips
{
  OFFSET 0 0 0
  CHANNELS 6 Xposition Yposition Zposition Zrotation Xrotation Yrotation
  JOINT Spine
  {
    OFFSET 0 10.1816 0.1315
    CHANNELS 3 Zrotation Xrotation Yrotation
    JOINT Spine1
    {
      OFFSET 0 10.0835 -1.0008
      CHANNELS 3 Zrotation Xrotation Yrotation
      JOINT Spine2
      {
        OFFSET 0 9.1 -1.3734
        CHANNELS 3 Zrotation Xrotation Yrotation
        JOINT Neck
        {
          OFFSET 0 16.6717 -2.5162
          CHANNELS 3 Zrotation Xrotation Yrotation
          JOINT Head
          {
            OFFSET 0 9.6179 1.685
            CHANNELS 3 Zrotation Xrotation Yrotation
            End Site
            {
              OFFSET 0 17.8152 2.585
            }
          }
        }
        JOINT LeftShoulder
        {
          OFFSET 4.5704 10.946 -2.628
          CHANNELS 3 Zrotation Xrotation Yrotation
          JOINT LeftArm
          {
            OFFSET 10.5924 -0.5246 -2.2321
            CHANNELS 3 Zrotation Xrotation Yrotation
            JOINT LeftForeArm
            {
              OFFSET 27.8415 -0.0001 0
              CHANNELS 3 Zrotation Xrotation Yrotation
              JOINT LeftHand
              {
                OFFSET 28.3288 0 0
                CHANNELS 3 Zrotation Xrotation Yrotation
                End Site
                {
                  OFFSET 0 0 0
                }
              }
            }
          }
        }
        JOINT RightShoulder
        {
          OFFSET -4.57 10.9462 -2.628
          CHANNELS 3 Zrotation Xrotation Yrotation
          JOINT RightArm
          {
            OFFSET -10.5928 -0.5248 -2.2321
            CHANNELS 3 Zrotation Xrotation Yrotation
            JOINT RightForeArm
            {
              OFFSET -27.8415 0 0
              CHANNELS 3 Zrotation Xrotation Yrotation
              JOINT RightHand
              {
                OFFSET -28.3288 0 0.0001
                CHANNELS 3 Zrotation Xrotation Yrotation
                End Site
                {
                  OFFSET 0 0 0
                }
              }
            }
          }
        }
      }
    }
  }
  JOINT LeftUpLeg
  {
    OFFSET 8.2078 -6.7517 -1.5996
    CHANNELS 3 Zrotation Xrotation Yrotation
    JOINT LeftLeg
    {
      OFFSET 0 -44.3705 0.2846
      CHANNELS 3 Zrotation Xrotation Yrotation
      JOINT LeftFoot
      {
        OFFSET 0 -44.4279 -2.9822
        CHANNELS 3 Zrotation Xrotation Yrotation
        JOINT LeftToeBase
        {
          OFFSET 0 -8.7287 10.7106
          CHANNELS 3 Zrotation Xrotation Yrotation
          End Site
          {
            OFFSET 0 -0.0007 9.2781
          }
        }
      }
    }
  }
  JOINT RightUpLeg
  {
    OFFSET -8.2078 -6.7517 -1.5996
    CHANNELS 3 Zrotation Xrotation Yrotation
    JOINT RightLeg
    {
      OFFSET 0 -44.3705 0.2862
      CHANNELS 3 Zrotation Xrotation Yrotation
      JOINT RightFoot
      {
        OFFSET 0 -44.4277 -2.9838
        CHANNELS 3 Zrotation Xrotation Yrotation
        JOINT RightToeBase
        {
          OFFSET 0 -8.7287 10.7106
          CHANNELS 3 Zrotation Xrotation Yrotation
          End Site
          {
            OFFSET 0 -0.0007 9.2781
          }
        }
      }
    }
  }
}
MOTION
Frames:	11
Frame Time:	0.0333333
-1.06217 88.2488 0.62151 0.0522646 -5.45319 -46.3231 -1.95702 9.24295 7.55273 -0.916151 2.17162 1.02474 -0.894673 2.18723 1.01704 4.4189 1.12115 13.174 -3.91066 7.47952 20.6962 -8.61708 0.572557 3.67365 -67.9227 -32.7083 -45.2099 -0.000178965 -7.73546e-005 -106.358 -15.7588 4.04096 -6.87555 -5.23542 1.81436 13.2489 64.7892 12.3416 53.0667 6.04449e-005 4.20284e-006 105.988 8.39647 -5.59459 18.5714 18.4134 -27.9212 17.8669 8.07842 58.2064 -13.1824 -14.4977 -21.5748 -13.9894 4.2921e-006 -1.59404 -3.26922e-006 -28.3981 -17.7176 -21.5917 -14.3759 57.9434 2.41625 22.3176 -24.8542 3.83738 -7.98594e-006 -0.0155584 -0.00367598 
-0.795994 88.2955 0.682581 0.857898 -5.11127 -45.1638 -1.54276 9.26555 7.85072 -0.761925 2.1938 1.11496 -0.741991 2.20985 1.10733 4.39854 1.16724 12.8987 -3.46657 7.46741 19.2826 -8.59442 0.936675 2.25367 -69.8489 -34.5292 -45.6034 -0.000181629 -8.59123e-005 -108.228 -16.293 2.55956 -6.32836 -5.27821 1.83165 13.6344 63.8816 11.6937 53.1553 6.0499e-005 4.00927e-006 105.233 7.4418 -5.62948 20.8825 17.5437 -29.2652 17.0297 7.90806 58.1129 -12.8942 -14.2508 -21.2408 -13.9568 4.2921e-006 -1.59404 -3.26922e-006 -28.9892 -17.9652 -22.0729 -13.7602 57.8362 1.50478 22.5013 -24.6471 3.50513 -7.98594e-006 -0.0155584 -0.00367598 
-0.495773 88.5036 0.879459 2.02457 -5.04408 -43.9093 -1.3667 9.14481 7.97578 -0.716648 2.19655 1.16668 -0.697665 2.21271 1.15964 4.5328 1.1634 12.6601 -2.8877 7.38031 18.2299 -7.48689 0.545619 1.90023 -74.7919 -36.2336 -45.4379 -0.00018367 -9.18785e-005 -109.543 -17.6408 1.39483 -5.62809 -3.941 2.84121 16.1556 60.4938 8.33363 53.5669 6.06666e-005 3.33341e-006 102.618 6.43157 -6.53847 24.7785 15.8273 -30.3962 15.7533 7.43655 57.5744 -12.062 -13.9612 -20.7483 -13.9099 4.2921e-006 -1.59404 -3.26922e-006 -30.2171 -17.9504 -22.8635 -13.0394 57.3228 0.876352 22.5536 -24.3177 2.97507 -7.98594e-006 -0.0155584 -0.00367598 
-0.161497 88.8083 1.2218 3.50272 -5.38245 -42.5689 -1.19612 8.87796 8.28764 -0.701574 2.15092 1.28969 -0.684645 2.16724 1.28399 4.76919 1.08289 12.3458 -2.17792 7.17064 16.9176 -5.72957 -0.0550709 1.14356 -81.1018 -37.9592 -44.2211 -0.000184883 -9.52266e-005 -110.286 -19.5101 -0.141014 -5.23983 -2.80469 3.92772 19.5252 56.7276 3.39669 53.9502 6.08446e-005 2.40393e-006 99.0644 5.90664 -7.5127 29.5041 13.2227 -31.1811 14.0499 6.79238 56.713 -10.8624 -13.6218 -20.1808 -13.8576 4.2921e-006 -1.59404 -3.26922e-006 -32.0593 -17.5926 -23.7859 -12.456 56.521 0.398065 22.7358 -23.8204 2.53382 -7.98594e-006 -0.0155584 -0.00367598 
0.196127 89.077 1.82803 5.42119 -6.34016 -41.08 -0.782653 8.33324 9.18197 -0.618493 2.04651 1.60223 -0.60649 2.0635 1.59869 5.04962 0.814605 11.8268 -1.30595 7.17309 14.533 -4.43896 -0.0127531 -1.68056 -86.038 -39.9223 -41.9986 -0.00018357 -9.15949e-005 -109.481 -20.9967 -1.80637 -5.46208 -2.50434 4.55212 22.4613 54.4018 -1.78806 54.8055 6.09762e-005 1.33991e-006 95.0378 7.2553 -7.49833 34.1788 9.34378 -31.5683 11.7094 6.19696 55.7964 -9.34342 -13.276 -19.7616 -13.8247 4.2921e-006 -1.59404 -3.26922e-006 -34.8811 -16.778 -24.9236 -12.2828 55.6377 0.0619856 23.379 -23.1352 2.63865 -7.98594e-006 -0.0155584 -0.00367598 
0.545591 89.1521 2.91322 7.9758 -8.0555 -38.8606 -0.036565 7.45746 10.5898 -0.407498 1.91872 2.07011 -0.402605 1.93704 2.06884 5.3572 0.0980568 11.0771 -0.0426918 8.23966 10.6805 -4.45643 1.15398 -6.84568 -86.219 -41.768 -38.0587 -0.000177998 -7.39796e-005 -105.626 -20.9684 -1.25621 -6.60859 -2.1636 5.099 24.0926 54.0728 -5.64966 56.4704 6.10346e-005 1.3508e-007 90.5072 11.1592 -6.00932 38.221 3.81118 -31.5833 8.4409 5.62613 55.1869 -7.73057 -12.7426 -19.7358 -13.841 4.2921e-006 -1.59404 -3.26922e-006 -39.0533 -15.0196 -26.215 -12.1472 54.8516 0.35851 24.3575 -22.7775 2.38573 -8.1541e-006 -0.0181794 -0.00367598 
0.822705 88.9271 4.67517 11.0771 -10.5594 -35.246 0.900839 6.36922 11.9243 -0.0830184 1.78455 2.4891 -0.0839748 1.80491 2.48859 5.92055 -1.45177 10.1175 2.04561 11.11 5.55533 -4.65674 2.42797 -12.1971 -81.7426 -42.6617 -31.2398 -0.000170757 -3.98774e-005 -98.3482 -19.6511 3.23162 -9.34388 -0.968283 6.0907 24.6789 55.2002 -7.67823 57.7174 6.09883e-005 -1.19545e-006 85.5065 16.1268 -3.9011 41.513 -3.07053 -30.8422 4.5597 4.89066 55.1947 -6.67848 -11.5954 -20.3376 -13.8809 4.2921e-006 -1.59404 -3.26922e-006 -44.1447 -11.4775 -26.9293 -11.8017 54.0352 1.16073 25.8432 -23.0971 1.06946 -8.80426e-006 -0.0283131 -0.00367598 
0.936321 88.2946 7.14153 14.0782 -13.8301 -30.4575 2.01366 5.10202 12.6636 0.349547 1.53616 2.68806 0.3472 1.55952 2.68571 7.19624 -3.98469 8.85402 5.29768 15.5345 -0.649273 -2.9298 1.75691 -14.1074 -78.7882 -40.2398 -23.5232 -0.00014405 -6.72671e-005 -89.8229 -18.482 8.85001 -14.3809 0.358096 7.09902 24.9412 57.3049 -8.51237 56.0339 6.08796e-005 -2.17303e-006 81.8126 19.4056 -2.22767 43.0346 -9.83247 -28.6503 1.3243 3.99302 56.2686 -6.86657 -9.61799 -21.9069 -13.9047 4.2921e-006 -1.59404 -3.26922e-006 -49.0016 -6.06588 -26.2022 -12.1993 53.4734 1.92193 27.7154 -23.1184 -0.842697 -5.09735e-005 -0.685552 -0.00367625 
0.862394 87.1322 10.0996 15.7103 -17.5592 -25.6418 3.72477 3.14175 12.8312 0.928499 0.922956 2.7088 0.9299 0.950608 2.70268 9.36297 -6.82401 7.20217 9.87129 20.6034 -7.86752 1.99518 -1.7499 -10.1422 -82.5979 -31.5797 -17.8834 -0.000125853 -7.37983e-005 -83.4276 -18.5562 11.5679 -21.3665 0.933329 7.52989 25.092 59.7425 -9.02864 50.1675 6.08861e-005 -2.12764e-006 81.9847 20.2215 -0.447898 41.8891 -14.2857 -25.0421 0.0573467 3.60231 59.0715 -8.59276 -7.15163 -24.7456 -14.1467 4.2921e-006 -1.59404 -3.26922e-006 -52.0713 0.0154117 -23.4692 -14.1888 53.9173 3.7465 28.6247 -22.3355 -4.32178 -0.000208478 -3.1374 -0.0036815 
0.644252 85.7212 13.2571 15.079 -20.9813 -22.3045 6.48646 -0.261657 12.9324 1.62877 -0.234932 2.75578 1.63731 -0.201101 2.74684 11.8413 -8.63061 5.31639 15.7984 25.6875 -15.76 9.46145 -6.37689 -2.21252 -89.4774 -17.7517 -11.6623 -0.00012045 -0.000111077 -80.0797 -19.1536 12.4635 -28.1847 0.9928 7.5225 24.9796 62.0795 -9.27364 41.52 6.09948e-005 -1.10879e-006 85.8329 21.0887 2.24777 40.094 -15.3192 -20.7836 0.896366 4.68368 62.9802 -11.807 -4.72118 -28.5434 -14.6303 4.2921e-006 -1.59404 -3.26922e-006 -52.0964 6.40644 -19.2098 -16.6811 53.8197 6.59904 29.2354 -21.7824 -9.16957 -0.000652898 -9.96576 -0.0037323 
0.171492 84.606 16.3984 12.9098 -24.1268 -21.9083 9.79685 -4.76315 13.5841 2.28971 -1.71068 2.96732 2.30558 -1.66915 2.95923 13.7856 -8.75592 3.63299 22.3032 29.7627 -22.9743 15.8037 -9.35665 4.0174 -94.514 -6.73011 -3.54246 -0.000114452 -0.000141142 -77.3551 -18.6906 14.1782 -32.0194 0.955841 7.40889 24.7318 64.7026 -8.59432 32.7012 6.10335e-005 -2.2389e-007 89.1593 24.0641 3.84441 40.5423 -14.1441 -15.8363 3.27716 6.48474 65.9714 -14.8676 -2.89411 -32.4516 -15.068 4.2921e-006 -1.59404 -3.26922e-006 -52.1632 11.4067 -14.4477 -16.8049 53.7839 8.24584 28.1647 -19.108 -13.3327 -0.00120068 -17.9901 -0.00386494 
